<svg xmlns="http://www.w3.org/2000/svg" width="17.231" height="19.692" viewBox="0 0 17.231 19.692">
  <path id="Subtração_2" data-name="Subtração 2" d="M-1822.616-4578.308h-13.538a1.848,1.848,0,0,1-1.846-1.845v-7.385a1.848,1.848,0,0,1,1.846-1.846h.923v-2.77a5.853,5.853,0,0,1,5.846-5.846,5.853,5.853,0,0,1,5.846,5.846v2.77h.923a1.848,1.848,0,0,1,1.846,1.846v7.385A1.848,1.848,0,0,1-1822.616-4578.308Zm-6.8-7.62a1.456,1.456,0,0,0-1.454,1.455v1.746a1.456,1.456,0,0,0,1.454,1.454,1.456,1.456,0,0,0,1.455-1.454v-1.746A1.457,1.457,0,0,0-1829.419-4585.928Zm.033-9a2.772,2.772,0,0,0-2.769,2.769v2.77h5.539v-2.77A2.772,2.772,0,0,0-1829.385-4594.923Z" transform="translate(1838 4598)" fill="#6e747b"/>
</svg>
