<svg xmlns="http://www.w3.org/2000/svg" width="14.27" height="16.309" viewBox="0 0 14.27 16.309">
  <path id="Subtração_3" data-name="Subtração 3" d="M-1825.26-4581.691h-11.212a1.531,1.531,0,0,1-1.529-1.529v-6.116a1.531,1.531,0,0,1,1.529-1.529h.764v-2.293a4.847,4.847,0,0,1,4.842-4.842,4.847,4.847,0,0,1,4.842,4.842v2.293h.764a1.531,1.531,0,0,1,1.529,1.529v6.116A1.531,1.531,0,0,1-1825.26-4581.691Zm-5.634-6.311a1.206,1.206,0,0,0-1.2,1.2v1.446a1.206,1.206,0,0,0,1.2,1.205,1.206,1.206,0,0,0,1.2-1.205v-1.446A1.206,1.206,0,0,0-1830.893-4588Zm.028-7.449a2.3,2.3,0,0,0-2.293,2.293v2.293h4.587v-2.293A2.3,2.3,0,0,0-1830.866-4595.451Z" transform="translate(1838 4598)" fill="#c0c3c7"/>
</svg>
