<svg xmlns="http://www.w3.org/2000/svg" xmlns:xlink="http://www.w3.org/1999/xlink" width="145.297" height="31.626" viewBox="0 0 145.297 31.626">
  <defs>
    <clipPath id="clip-path">
      <path id="Caminho_1714" data-name="Caminho 1714" d="M31.627-25.187A15.813,15.813,0,0,1,15.813-9.373,15.813,15.813,0,0,1,0-25.187,15.813,15.813,0,0,1,15.813-41,15.813,15.813,0,0,1,31.627-25.187Z" fill="none" clip-rule="evenodd"/>
    </clipPath>
    <clipPath id="clip-path-2">
      <path id="Caminho_1713" data-name="Caminho 1713" d="M-234,1121H1240V-99H-234Z" fill="none"/>
    </clipPath>
    <clipPath id="clip-path-3">
      <path id="Caminho_1717" data-name="Caminho 1717" d="M17.959-27.768a.405.405,0,0,0-.459-.458H14.15a.4.4,0,0,0-.458.458v.942a.4.4,0,0,0,.458.458H17.5a.405.405,0,0,0,.459-.458Zm-5.024,9.314q-3.212,0-3.212-3.165v-7.136q0-3.166,3.1-3.165h6.148q2.936,0,2.937,3.074v1.973q0,3.119-2.937,3.12H14.4a1.468,1.468,0,0,1-.711-.161V-22.9a.608.608,0,0,0,.687.689H21.33v3.762Z" fill="none" clip-rule="evenodd"/>
    </clipPath>
    <clipPath id="clip-path-5">
      <path id="Caminho_1720" data-name="Caminho 1720" d="M48.966-25.544H38.606a7.825,7.825,0,0,1,.5-2.231,6.149,6.149,0,0,1,1.135-1.876,4.7,4.7,0,0,1,1.613-1.172,4.91,4.91,0,0,1,1.983-.4,5.056,5.056,0,0,1,2.226.466,4.613,4.613,0,0,1,1.6,1.271,5.7,5.7,0,0,1,.978,1.895,7.817,7.817,0,0,1,.331,2.052m.749-1.988a7.026,7.026,0,0,0-1.1-2.394,5.687,5.687,0,0,0-1.97-1.693,6.075,6.075,0,0,0-2.864-.639,5.763,5.763,0,0,0-2.33.5,5.81,5.81,0,0,0-2,1.455,7.34,7.34,0,0,0-1.375,2.321,8.754,8.754,0,0,0-.521,3.115,11.392,11.392,0,0,0,.353,2.89,6.892,6.892,0,0,0,1.1,2.368,5.062,5.062,0,0,0,1.94,1.577,6.277,6.277,0,0,0,2.679.529h.149a6.241,6.241,0,0,0,4.088-1.371,5.7,5.7,0,0,0,1.973-3.865l.035-.281H48.846l-.033.213a4.885,4.885,0,0,1-1.673,3.226,5.34,5.34,0,0,1-3.414,1.074,5.262,5.262,0,0,1-2.357-.478,4.233,4.233,0,0,1-1.555-1.3,5.809,5.809,0,0,1-.9-1.972,10.712,10.712,0,0,1-.316-2.249h11.4L50-24.753a9.759,9.759,0,0,0-.286-2.779" fill="none" clip-rule="evenodd"/>
    </clipPath>
    <clipPath id="clip-path-7">
      <path id="Caminho_1723" data-name="Caminho 1723" d="M52.289-22.414a9.04,9.04,0,0,1-.323-2.428,9.259,9.259,0,0,1,.3-2.313,6.582,6.582,0,0,1,.907-2.046,4.86,4.86,0,0,1,1.566-1.464A4.382,4.382,0,0,1,57-31.227,4.868,4.868,0,0,1,60.818-29.6a7,7,0,0,1,1.45,4.758,8.228,8.228,0,0,1-.36,2.447,6.33,6.33,0,0,1-1.033,2.018,4.992,4.992,0,0,1-1.643,1.365,4.806,4.806,0,0,1-2.234.5,4.641,4.641,0,0,1-2.2-.5,4.482,4.482,0,0,1-1.559-1.371,6.471,6.471,0,0,1-.945-2.032Zm9.979-14.835v8.113a5.641,5.641,0,0,0-1.529-1.926A5.775,5.775,0,0,0,57-32.259a5.468,5.468,0,0,0-2.613.614,5.715,5.715,0,0,0-1.9,1.637,7.5,7.5,0,0,0-1.154,2.361,9.881,9.881,0,0,0-.4,2.8,9.965,9.965,0,0,0,.409,2.913,6.936,6.936,0,0,0,1.2,2.326,5.644,5.644,0,0,0,1.916,1.541A5.679,5.679,0,0,0,57-17.5a5.7,5.7,0,0,0,3.674-1.2,5.919,5.919,0,0,0,1.6-1.976v2.88H63.3V-37.248Z" fill="none" clip-rule="evenodd"/>
    </clipPath>
    <clipPath id="clip-path-9">
      <path id="Caminho_1726" data-name="Caminho 1726" d="M66.432-34.067h1.032v-3.182H66.432Z" fill="none" clip-rule="evenodd"/>
    </clipPath>
    <clipPath id="clip-path-11">
      <path id="Caminho_1729" data-name="Caminho 1729" d="M66.432-17.8h1.032V-31.94H66.432Z" fill="none" clip-rule="evenodd"/>
    </clipPath>
    <clipPath id="clip-path-13">
      <path id="Caminho_1732" data-name="Caminho 1732" d="M76.381-32.261a6.675,6.675,0,0,0-2.015.279,5.473,5.473,0,0,0-1.654.836,4.342,4.342,0,0,0-1.126,1.253c-.06.1-.117.207-.171.313V-31.94H70.383V-17.8h1.031v-7.974a7.319,7.319,0,0,1,.309-2.1,5.12,5.12,0,0,1,.936-1.784,4.379,4.379,0,0,1,1.6-1.2,4.91,4.91,0,0,1,2.31-.363l.265.015v-1.041Z" fill="none" clip-rule="evenodd"/>
    </clipPath>
    <clipPath id="clip-path-15">
      <path id="Caminho_1735" data-name="Caminho 1735" d="M88.4-25.544H78.038a7.808,7.808,0,0,1,.5-2.232,6.159,6.159,0,0,1,1.134-1.876,4.708,4.708,0,0,1,1.613-1.172,4.911,4.911,0,0,1,1.984-.4,5.053,5.053,0,0,1,2.226.466,4.6,4.6,0,0,1,1.6,1.271,5.693,5.693,0,0,1,.978,1.895,7.8,7.8,0,0,1,.331,2.052m.748-1.987a7.011,7.011,0,0,0-1.1-2.394,5.681,5.681,0,0,0-1.97-1.694,6.079,6.079,0,0,0-2.864-.639,5.768,5.768,0,0,0-2.33.5,5.815,5.815,0,0,0-2,1.455,7.377,7.377,0,0,0-1.375,2.321,8.764,8.764,0,0,0-.52,3.115,11.387,11.387,0,0,0,.353,2.89,6.911,6.911,0,0,0,1.1,2.368,5.065,5.065,0,0,0,1.94,1.577,6.281,6.281,0,0,0,2.679.529h.148A6.24,6.24,0,0,0,87.3-18.876a5.7,5.7,0,0,0,1.974-3.865l.035-.281h-1.03l-.032.213a4.889,4.889,0,0,1-1.673,3.226,5.341,5.341,0,0,1-3.415,1.074,5.26,5.26,0,0,1-2.356-.478,4.24,4.24,0,0,1-1.555-1.3,5.78,5.78,0,0,1-.9-1.972,10.631,10.631,0,0,1-.317-2.248h11.4l.009-.241a9.759,9.759,0,0,0-.287-2.778" fill="none" clip-rule="evenodd"/>
    </clipPath>
    <clipPath id="clip-path-17">
      <path id="Caminho_1738" data-name="Caminho 1738" d="M101.533-22.942l-.018.232a4.479,4.479,0,0,1-.476,1.747A4.484,4.484,0,0,1,100-19.643a4.5,4.5,0,0,1-1.472.842,5.459,5.459,0,0,1-1.8.291A5.049,5.049,0,0,1,94.445-19,4.8,4.8,0,0,1,92.8-20.325,6.031,6.031,0,0,1,91.8-22.262a7.725,7.725,0,0,1-.347-2.314,9.9,9.9,0,0,1,.3-2.368,6.652,6.652,0,0,1,.946-2.148,4.931,4.931,0,0,1,1.72-1.541,5.383,5.383,0,0,1,2.625-.592A5.2,5.2,0,0,1,98.585-31a3.9,3.9,0,0,1,1.3.686,4.138,4.138,0,0,1,.975,1.151,4.744,4.744,0,0,1,.554,1.652l.033.211h1.028l-.035-.281a5.5,5.5,0,0,0-.626-2.016,4.983,4.983,0,0,0-1.217-1.467,5.251,5.251,0,0,0-1.644-.892,6.029,6.029,0,0,0-1.911-.3,6.468,6.468,0,0,0-2.939.637,5.992,5.992,0,0,0-2.077,1.7,7.3,7.3,0,0,0-1.21,2.445,10.486,10.486,0,0,0-.395,2.9,8.825,8.825,0,0,0,.411,2.718,6.717,6.717,0,0,0,1.213,2.246,5.838,5.838,0,0,0,1.982,1.539,6.165,6.165,0,0,0,2.7.569,6.616,6.616,0,0,0,2.22-.36,5.5,5.5,0,0,0,1.78-1.029,5.206,5.206,0,0,0,1.24-1.631,6.111,6.111,0,0,0,.583-2.145l.025-.274Z" fill="none" clip-rule="evenodd"/>
    </clipPath>
    <clipPath id="clip-path-19">
      <path id="Caminho_1741" data-name="Caminho 1741" d="M110.451-30.908V-31.94h-3.078v-4.3h-1.032v4.3h-2.495v1.032h2.495V-20.6a2.752,2.752,0,0,0,.74,2.2,2.633,2.633,0,0,0,1.74.6,8.566,8.566,0,0,0,.866-.029l.686-.078v-1.125l-.344.138a1.256,1.256,0,0,1-.368.049,8.036,8.036,0,0,1-1.312-.025.888.888,0,0,1-.459-.2,1.291,1.291,0,0,1-.362-.536,3.055,3.055,0,0,1-.154-1.1V-30.908Z" fill="none" clip-rule="evenodd"/>
    </clipPath>
    <clipPath id="clip-path-21">
      <path id="Caminho_1744" data-name="Caminho 1744" d="M122.877-24.868a8.424,8.424,0,0,1-.348,2.423,6.127,6.127,0,0,1-1.032,2.028,5.093,5.093,0,0,1-1.684,1.392,4.911,4.911,0,0,1-2.287.516,4.967,4.967,0,0,1-2.312-.516,5.1,5.1,0,0,1-1.684-1.392,6.108,6.108,0,0,1-1.032-2.028,8.409,8.409,0,0,1-.347-2.423,8.321,8.321,0,0,1,.347-2.4,6.111,6.111,0,0,1,1.032-2.028,5.263,5.263,0,0,1,1.685-1.406,4.875,4.875,0,0,1,2.311-.528,4.817,4.817,0,0,1,2.285.528,5.258,5.258,0,0,1,1.686,1.406,6.128,6.128,0,0,1,1.032,2.028,8.332,8.332,0,0,1,.348,2.4m.622-2.768a7.119,7.119,0,0,0-1.225-2.352,6.24,6.24,0,0,0-2-1.645,5.86,5.86,0,0,0-2.744-.626,5.911,5.911,0,0,0-2.77.626,6.244,6.244,0,0,0-2,1.645,7.119,7.119,0,0,0-1.225,2.352,9.362,9.362,0,0,0-.41,2.768,9.357,9.357,0,0,0,.41,2.768,7.1,7.1,0,0,0,1.225,2.352,6.081,6.081,0,0,0,2.007,1.633,5.962,5.962,0,0,0,2.741.611,6.031,6.031,0,0,0,2.769-.611,6.087,6.087,0,0,0,2.006-1.633A7.109,7.109,0,0,0,123.5-22.1a9.357,9.357,0,0,0,.41-2.768,9.357,9.357,0,0,0-.41-2.768" fill="none" clip-rule="evenodd"/>
    </clipPath>
    <clipPath id="clip-path-23">
      <path id="Caminho_1747" data-name="Caminho 1747" d="M132.109-32.261a6.669,6.669,0,0,0-2.014.279,5.478,5.478,0,0,0-1.654.836,4.336,4.336,0,0,0-1.126,1.253c-.061.1-.117.207-.171.313V-31.94h-1.031V-17.8h1.031v-7.974a7.314,7.314,0,0,1,.309-2.1,5.11,5.11,0,0,1,.936-1.784,4.382,4.382,0,0,1,1.6-1.2,4.911,4.911,0,0,1,2.311-.363l.264.015v-1.041Z" fill="none" clip-rule="evenodd"/>
    </clipPath>
    <clipPath id="clip-path-25">
      <path id="Caminho_1750" data-name="Caminho 1750" d="M144.2-31.94l-4.723,12.5-5.235-12.5h-1.1l5.788,13.764-.945,2.427a3.675,3.675,0,0,1-.482.906,1.561,1.561,0,0,1-.548.459,2.157,2.157,0,0,1-.761.188c-.318.026-.709.039-1.161.039h-.25v1.032h.25c.409,0,.8-.014,1.173-.041a3.477,3.477,0,0,0,1.073-.244,2.677,2.677,0,0,0,.907-.628,3.454,3.454,0,0,0,.691-1.159L145.3-31.94Z" fill="none" clip-rule="evenodd"/>
    </clipPath>
  </defs>
  <g id="Grupo_4400" data-name="Grupo 4400" transform="translate(-269 -338)">
    <g id="Grupo_4022" data-name="Grupo 4022" transform="translate(269 379)">
      <g id="Grupo_3997" data-name="Grupo 3997" clip-path="url(#clip-path)">
        <g id="Grupo_3996" data-name="Grupo 3996" clip-path="url(#clip-path-2)">
          <path id="Caminho_1712" data-name="Caminho 1712" d="M-5-4.373H36.627V-46H-5Z" fill="#189adb"/>
        </g>
      </g>
      <g id="Grupo_3999" data-name="Grupo 3999" clip-path="url(#clip-path-3)">
        <g id="Grupo_3998" data-name="Grupo 3998" clip-path="url(#clip-path-2)">
          <path id="Caminho_1715" data-name="Caminho 1715" d="M4.722-13.454H26.9V-36.92H4.722Z" fill="#fff"/>
        </g>
      </g>
      <g id="Grupo_4001" data-name="Grupo 4001" clip-path="url(#clip-path-5)">
        <g id="Grupo_4000" data-name="Grupo 4000" clip-path="url(#clip-path-2)">
          <path id="Caminho_1718" data-name="Caminho 1718" d="M32.557-12.5H55.008V-37.259H32.557Z" fill="#404041"/>
        </g>
      </g>
      <g id="Grupo_4003" data-name="Grupo 4003" clip-path="url(#clip-path-7)">
        <g id="Grupo_4002" data-name="Grupo 4002" clip-path="url(#clip-path-2)">
          <path id="Caminho_1721" data-name="Caminho 1721" d="M45.935-12.5H68.3V-42.248H45.935Z" fill="#404041"/>
        </g>
      </g>
      <g id="Grupo_4005" data-name="Grupo 4005" clip-path="url(#clip-path-9)">
        <g id="Grupo_4004" data-name="Grupo 4004" clip-path="url(#clip-path-2)">
          <path id="Caminho_1724" data-name="Caminho 1724" d="M61.432-29.067H72.464V-42.248H61.432Z" fill="#404041"/>
        </g>
      </g>
      <g id="Grupo_4007" data-name="Grupo 4007" clip-path="url(#clip-path-11)">
        <g id="Grupo_4006" data-name="Grupo 4006" clip-path="url(#clip-path-2)">
          <path id="Caminho_1727" data-name="Caminho 1727" d="M61.432-12.8H72.464V-36.94H61.432Z" fill="#404041"/>
        </g>
      </g>
      <g id="Grupo_4009" data-name="Grupo 4009" clip-path="url(#clip-path-13)">
        <g id="Grupo_4008" data-name="Grupo 4008" clip-path="url(#clip-path-2)">
          <path id="Caminho_1730" data-name="Caminho 1730" d="M65.383-12.8H81.83V-37.261H65.383Z" fill="#404041"/>
        </g>
      </g>
      <g id="Grupo_4011" data-name="Grupo 4011" clip-path="url(#clip-path-15)">
        <g id="Grupo_4010" data-name="Grupo 4010" clip-path="url(#clip-path-2)">
          <path id="Caminho_1733" data-name="Caminho 1733" d="M71.989-12.5H94.441V-37.259H71.989Z" fill="#404041"/>
        </g>
      </g>
      <g id="Grupo_4013" data-name="Grupo 4013" clip-path="url(#clip-path-17)">
        <g id="Grupo_4012" data-name="Grupo 4012" clip-path="url(#clip-path-2)">
          <path id="Caminho_1736" data-name="Caminho 1736" d="M85.419-12.5H107.57V-37.259H85.419Z" fill="#404041"/>
        </g>
      </g>
      <g id="Grupo_4015" data-name="Grupo 4015" clip-path="url(#clip-path-19)">
        <g id="Grupo_4014" data-name="Grupo 4014" clip-path="url(#clip-path-2)">
          <path id="Caminho_1739" data-name="Caminho 1739" d="M98.846-12.8h16.6V-41.24h-16.6Z" fill="#404041"/>
        </g>
      </g>
      <g id="Grupo_4017" data-name="Grupo 4017" clip-path="url(#clip-path-21)">
        <g id="Grupo_4016" data-name="Grupo 4016" clip-path="url(#clip-path-2)">
          <path id="Caminho_1742" data-name="Caminho 1742" d="M106.119-12.5h22.79V-37.258h-22.79Z" fill="#404041"/>
        </g>
      </g>
      <g id="Grupo_4019" data-name="Grupo 4019" clip-path="url(#clip-path-23)">
        <g id="Grupo_4018" data-name="Grupo 4018" clip-path="url(#clip-path-2)">
          <path id="Caminho_1745" data-name="Caminho 1745" d="M121.112-12.8h16.446V-37.261H121.112Z" fill="#404041"/>
        </g>
      </g>
      <g id="Grupo_4021" data-name="Grupo 4021" clip-path="url(#clip-path-25)">
        <g id="Grupo_4020" data-name="Grupo 4020" clip-path="url(#clip-path-2)">
          <path id="Caminho_1748" data-name="Caminho 1748" d="M128.141-8.125H150.3V-36.94H128.141Z" fill="#404041"/>
        </g>
      </g>
    </g>
  </g>
</svg>
