<svg xmlns="http://www.w3.org/2000/svg" width="23" height="22.791" viewBox="0 0 23 22.791">
  <path id="Design" d="M16.755,1.047,6.55,11.252H5.94A5.992,5.992,0,0,0,.152,17.04L0,22.067a.916.916,0,0,0,.152.609c.152,0,.457.152.609.152l5.026-.152a5.885,5.885,0,0,0,5.788-5.788v-.609L21.934,6.073A3.6,3.6,0,0,0,23,3.636h0A3.031,3.031,0,0,0,21.934,1.2,3.635,3.635,0,0,0,16.755,1.047ZM5.788,21.153h0l-4.265.152V17.193A4.42,4.42,0,0,1,5.94,12.775a4.066,4.066,0,0,1,4.113,3.96A4.5,4.5,0,0,1,5.788,21.153Zm14.927-16.3h0l-9.6,9.6-.457-.762c-.3-.3-.457-.609-.762-.914a3.323,3.323,0,0,0-.762-.609l-.762-.457,9.6-9.6a2.116,2.116,0,0,1,2.894,0,2.126,2.126,0,0,1,.457,1.371A1.654,1.654,0,0,1,20.715,4.855Z" transform="translate(0 -0.037)" fill="#fff"/>
</svg>
