<svg xmlns="http://www.w3.org/2000/svg" width="25" height="21.08" viewBox="0 0 25 21.08">
  <path id="Promote" d="M23.612,7.612V1.317A1.361,1.361,0,0,0,22.223,0h0a1.434,1.434,0,0,0-.867.289l-3.691,2.8a10.9,10.9,0,0,1-6.553,2.18H2.778A2.709,2.709,0,0,0,0,7.9v3.952a2.709,2.709,0,0,0,2.778,2.635L2.757,15.81a9.99,9.99,0,0,0,1.109,4.568,1.373,1.373,0,0,0,1.233.7H9.712A1.306,1.306,0,0,0,10.836,19,5.071,5.071,0,0,1,9.7,15.81a4.743,4.743,0,0,1,.191-1.317h1.219a10.9,10.9,0,0,1,6.553,2.18l3.691,2.8a1.438,1.438,0,0,0,.867.289,1.353,1.353,0,0,0,1.389-1.317V12.151a2.549,2.549,0,0,0,0-4.539ZM9.712,19.762h-4.6a8.511,8.511,0,0,1-.971-3.931l.021-1.317v-.02H8.478a5.966,5.966,0,0,0-.165,1.317A6.237,6.237,0,0,0,9.712,19.762ZM2.778,13.175a1.356,1.356,0,0,1-1.389-1.317V7.9A1.356,1.356,0,0,1,2.778,6.587h8.333v6.587ZM22.225,18.4a.2.2,0,0,1-.011.037l-3.682-2.794A12.28,12.28,0,0,0,12.5,13.263V6.5a12.28,12.28,0,0,0,6.032-2.381l3.684-2.8,0,0s0,0,0-.007l0,17.083Z" fill="#fff"/>
</svg>
