<svg xmlns="http://www.w3.org/2000/svg" width="24.996" height="17.497" viewBox="0 0 24.996 17.497">
  <path id="User_account" data-name="User account" d="M18.747,40.749A3.749,3.749,0,1,0,15,37,3.75,3.75,0,0,0,18.747,40.749Zm0-6.249a2.5,2.5,0,1,1-2.5,2.5A2.5,2.5,0,0,1,18.747,34.5ZM7.5,40.749a4.374,4.374,0,1,0-4.374-4.374A4.372,4.372,0,0,0,7.5,40.749Zm0-7.5a3.125,3.125,0,1,1-3.125,3.125A3.129,3.129,0,0,1,7.5,33.25Zm3.128,8.28C9.323,41.53,9,42,7.5,42S5.675,41.53,4.37,41.53a4.3,4.3,0,0,0-3.6,1.832A4.476,4.476,0,0,0,0,45.873v1.75A1.875,1.875,0,0,0,1.875,49.5H13.123A1.875,1.875,0,0,0,15,47.623v-1.75a4.476,4.476,0,0,0-.766-2.511,4.3,4.3,0,0,0-3.6-1.832Zm3.121,6.093a.627.627,0,0,1-.625.625H1.875a.627.627,0,0,1-.625-.625v-1.75A3.245,3.245,0,0,1,1.8,44.061,3.057,3.057,0,0,1,4.367,42.78c1.07,0,1.453.469,3.132.469s2.062-.469,3.128-.469a3.057,3.057,0,0,1,2.566,1.281,3.245,3.245,0,0,1,.551,1.812v1.75Zm10.612-4.488a3.59,3.59,0,0,0-3-1.527C20.27,41.608,20,42,18.747,42s-1.523-.391-2.609-.391a3.809,3.809,0,0,0-1.488.316,3.767,3.767,0,0,1,.789,1.039,2.563,2.563,0,0,1,.7-.1,26.037,26.037,0,0,0,2.609.391,26.036,26.036,0,0,0,2.609-.391,2.34,2.34,0,0,1,1.968.976,2.486,2.486,0,0,1,.426,1.394v1.453a.313.313,0,0,1-.312.312h-7.19a5.6,5.6,0,0,1-.062,1.25h7.249A1.562,1.562,0,0,0,25,46.685V45.228A3.731,3.731,0,0,0,24.359,43.135Z" transform="translate(0 -32)" fill="#fff"/>
</svg>
