<svg xmlns="http://www.w3.org/2000/svg" width="23.417" height="21" viewBox="0 0 23.417 21">
  <path id="chart-bar-regular" d="M17.953,77.494h1.011a.621.621,0,0,0,.578-.578v-10.4a.621.621,0,0,0-.578-.578H17.953a.621.621,0,0,0-.578.578v10.4A.621.621,0,0,0,17.953,77.494Zm-8.667,0H10.3a.621.621,0,0,0,.578-.578V67.96a.621.621,0,0,0-.578-.578H9.286a.621.621,0,0,0-.578.578v8.956A.621.621,0,0,0,9.286,77.494Zm4.333,0H14.63a.621.621,0,0,0,.578-.578V70.849a.621.621,0,0,0-.578-.578H13.619a.621.621,0,0,0-.578.578v6.067A.621.621,0,0,0,13.619,77.494Zm8.811,2.167H2.208L1.9,61.55a.722.722,0,0,0-.722-.722H.459a.722.722,0,0,0-.722.722l.3,18.833a1.445,1.445,0,0,0,1.444,1.445H22.431a.722.722,0,0,0,.722-.722v-.722A.722.722,0,0,0,22.431,79.661ZM4.952,77.494H5.963a.621.621,0,0,0,.578-.578V73.738a.621.621,0,0,0-.578-.578H4.952a.621.621,0,0,0-.578.578v3.178a.621.621,0,0,0,.578.578Z" transform="translate(0.264 -60.828)" fill="#fff"/>
</svg>
