<svg xmlns="http://www.w3.org/2000/svg" width="47.3" height="31.518" viewBox="0 0 47.3 31.518">
  <path id="Caminho_2102" data-name="Caminho 2102" d="M50.28,8.627a2.049,2.049,0,0,0,0-.552,1.681,1.681,0,0,0-.131-.447,2.889,2.889,0,0,0-.236-.368,1.97,1.97,0,0,0-.368-.447l-.315-.184a1.812,1.812,0,0,0-.5-.263H48.2A1.839,1.839,0,0,0,47.653,6H34.521a2.627,2.627,0,1,0,0,5.253h7.433L31.448,23.624,20.1,16.874a2.626,2.626,0,0,0-3.362.578L3.607,33.211a2.63,2.63,0,0,0,4.045,3.362L19.34,22.547l11.215,6.724a2.627,2.627,0,0,0,3.336-.552l11.136-13v6.041a2.627,2.627,0,1,0,5.253,0Z" transform="translate(-2.998 -6)" fill="#199ada"/>
</svg>
