<svg xmlns="http://www.w3.org/2000/svg" viewBox="0 0 24 24"><path d="M 12 2 C 6.5185729 2 2 6.2337801 2 11.5 C 2 14.125522 3.1982482 16.445535 5 18.15625 L 5 21 L 5 22.625 L 6.4375 21.90625 L 9.1875 20.53125 C 10.087292 20.786887 11.006892 21 12 21 C 17.481427 21 22 16.76622 22 11.5 C 22 6.2337801 17.481427 2 12 2 z M 12 4 C 16.460573 4 20 7.3782199 20 11.5 C 20 15.62178 16.460573 19 12 19 C 11.058268 19 10.160082 18.845927 9.3125 18.5625 L 8.90625 18.4375 L 8.53125 18.625 L 7 19.375 L 7 17.8125 L 7 17.375 L 6.65625 17.0625 C 5.0236838 15.679662 4 13.705594 4 11.5 C 4 7.3782199 7.5394271 4 12 4 z M 11.0625 9.03125 L 6.15625 14.21875 L 10.5625 11.75 L 12.9375 14.28125 L 17.78125 9.03125 L 13.46875 11.4375 L 11.0625 9.03125 z"/></svg>
