<svg xmlns="http://www.w3.org/2000/svg"  viewBox="0 0 100 100">
    <path fill="#FFFFFF" opacity="0.5" d="M12.5 10 Q10 10 10 12.5 L10 27.5 Q10 30 12.5 30 L97.5 30 Q100 30 100 27.5 L100 12.5 Q100 10 97.5 10 L12.5 10 Z" />
    <path fill="#FFFFFF" d="M42.5 40 Q40 40 40 42.5 L40 57.5 Q40 60 42.5 60 L97.5 60 Q100 60 100 57.5 L100 42.5 Q100 40 97.5 40 L42.5 40 Z" />
    <path fill="#FFFFFF" stroke="#FFFFFF" stroke-width="2" d="M12.5 48.32 L22.5 41.51 Q25 40 25 43.33 L25 56.66 Q25 60 22.5 58.32 L12.5 51.66 Q10 50 12.5 48.32 Z" />
    <path fill="#FFFFFF" opacity="0.5" d="M42.5 70 Q40 70 40 72.5 L40 87.5 Q40 90 42.5 90 L97.5 90 Q100 90 100 87.5 L100 72.5 Q100 70 97.5 70 L42.5 70 Z" />
</svg>
